<?xml version="1.0" encoding="UTF-8" standalone="no"?>
<!-- Created with Inkscape (http://www.inkscape.org/) -->

<svg
   width="32"
   height="32"
   viewBox="0 0 8.4666665 8.4666666"
   version="1.1"
   id="svg345"
   inkscape:version="1.2.2 (732a01da63, 2022-12-09)"
   sodipodi:docname="favicon.svg"
   xmlns:inkscape="http://www.inkscape.org/namespaces/inkscape"
   xmlns:sodipodi="http://sodipodi.sourceforge.net/DTD/sodipodi-0.dtd"
   xmlns="http://www.w3.org/2000/svg"
   xmlns:svg="http://www.w3.org/2000/svg">
  <sodipodi:namedview
     id="namedview347"
     pagecolor="#ffffff"
     bordercolor="#000000"
     borderopacity="0.25"
     inkscape:showpageshadow="2"
     inkscape:pageopacity="0.0"
     inkscape:pagecheckerboard="0"
     inkscape:deskcolor="#d1d1d1"
     inkscape:document-units="mm"
     showgrid="false"
     inkscape:zoom="7.7304786"
     inkscape:cx="25.483545"
     inkscape:cy="31.304659"
     inkscape:window-width="1920"
     inkscape:window-height="991"
     inkscape:window-x="-9"
     inkscape:window-y="-9"
     inkscape:window-maximized="1"
     inkscape:current-layer="layer1" />
  <defs
     id="defs342" />
  <g
     inkscape:label="Layer 1"
     inkscape:groupmode="layer"
     id="layer1">
    <path
       d="m 5.7782017,6.2437804 q 0.2160094,0 0.3600154,0.1440067 0.1440062,0.1350054 0.1440062,0.3510148 0,0.2070081 -0.1440062,0.3510148 -0.144006,0.1440066 -0.3600154,0.1440066 H 2.8800778 q -0.2250096,0 -0.3600155,-0.1620067 Q 2.3850567,6.9098099 2.394057,6.7478019 2.403053,6.6127965 2.4300583,6.5137925 2.4570596,6.4057871 2.5650642,6.2707818 L 4.8061602,3.3726579 4.7881593,3.4986631 H 2.9610812 q -0.2160092,0 -0.3600154,-0.1440062 -0.1440062,-0.144006 -0.1440062,-0.3600153 0,-0.207009 0.1440062,-0.3420146 Q 2.745072,2.5086208 2.9610812,2.5086208 h 2.7721187 q 0.2070089,0 0.3510151,0.1530065 0.1440061,0.1530065 0.1260053,0.3870166 -0.009,0.090004 -0.036001,0.1800077 -0.018001,0.090004 -0.1170054,0.2160092 L 3.8521195,6.2977831 v -0.054003 z"
       style="font-weight:bold;font-size:53.3333px;line-height:0.9;font-family:Quicksand;-inkscape-font-specification:'Quicksand Bold';text-orientation:upright;white-space:pre;shape-inside:url(#rect680);shape-padding:1.03486;opacity:0.987234;fill:#62af44;stroke-width:0.318911;stroke-linejoin:bevel;stroke-opacity:0.309804"
       id="path1341" />
    <path
       style="opacity:0.987234;fill:#62af44;fill-opacity:1;stroke:none;stroke-width:0.33724;stroke-linejoin:bevel;stroke-opacity:0.309804"
       id="path1708"
       sodipodi:type="arc"
       sodipodi:cx="2.9597259"
       sodipodi:cy="1.6516576"
       sodipodi:rx="0.5020929"
       sodipodi:ry="0.5020929"
       sodipodi:start="0.013162738"
       sodipodi:end="0.013160766"
       sodipodi:arc-type="arc"
       d="M 3.4617753,1.6582663 A 0.5020929,0.5020929 0 0 1 2.9531174,2.153707 0.5020929,0.5020929 0 0 1 2.4576764,1.6450493 0.5020929,0.5020929 0 0 1 2.9663338,1.1496082 0.5020929,0.5020929 0 0 1 3.4617753,1.6582653"
       sodipodi:open="true" />
    <path
       style="opacity:0.987234;fill:#62af44;fill-opacity:1;stroke:none;stroke-width:0.33724;stroke-linejoin:bevel;stroke-opacity:0.309804"
       id="path1708-9"
       sodipodi:type="arc"
       sodipodi:cx="5.7157793"
       sodipodi:cy="1.6571171"
       sodipodi:rx="0.5020929"
       sodipodi:ry="0.5020929"
       sodipodi:start="0.015056877"
       sodipodi:end="6.2770605"
       sodipodi:arc-type="arc"
       d="M 6.2178153,1.6646768 A 0.5020929,0.5020929 0 0 1 5.7108782,2.1591861 0.5020929,0.5020929 0 0 1 5.2136914,1.6548748 0.5020929,0.5020929 0 0 1 5.7153629,1.1550244 0.5020929,0.5020929 0 0 1 6.2178628,1.6540419"
       sodipodi:open="true" />
    <path
       style="opacity:0.987234;fill:#62af44;fill-opacity:1;stroke:none;stroke-width:0.33724;stroke-linejoin:bevel;stroke-opacity:0.309804"
       id="path1708-9-5"
       sodipodi:type="arc"
       sodipodi:cx="4.3513961"
       sodipodi:cy="1.6516588"
       sodipodi:rx="0.5020929"
       sodipodi:ry="0.5020929"
       sodipodi:start="0.013162738"
       sodipodi:end="6.2669222"
       sodipodi:arc-type="arc"
       d="M 4.8534455,1.6582675 A 0.5020929,0.5020929 0 0 1 4.3484808,2.1537432 0.5020929,0.5020929 0 0 1 3.8493038,1.6524371 0.5020929,0.5020929 0 0 1 4.3469242,1.1495858 0.5020929,0.5020929 0 0 1 4.8534226,1.6434935"
       sodipodi:open="true" />
  </g>
</svg>
